<mxfile host="Electron" agent="Mozilla/5.0 (Macintosh; Intel Mac OS X 10_15_7) AppleWebKit/537.36 (KHTML, like Gecko) draw.io/25.0.2 Chrome/128.0.6613.186 Electron/32.2.5 Safari/537.36" version="25.0.2" pages="2">
  <diagram name="uml object diagram" id="jEh3iE3DxbtNQt7Xf3Le">
    <mxGraphModel dx="1000" dy="1674" grid="0" gridSize="10" guides="1" tooltips="1" connect="1" arrows="1" fold="1" page="0" pageScale="1" pageWidth="1169" pageHeight="827" math="0" shadow="0">
      <root>
        <mxCell id="0" />
        <mxCell id="1" parent="0" />
        <mxCell id="7xocbiBguHXkOmWYN_6A-1" style="edgeStyle=none;shape=connector;curved=0;rounded=0;orthogonalLoop=1;jettySize=auto;html=1;strokeColor=default;align=center;verticalAlign=middle;fontFamily=Helvetica;fontSize=12;fontColor=default;labelBackgroundColor=default;startSize=8;endArrow=none;endFill=0;endSize=8;" edge="1" parent="1" source="7xocbiBguHXkOmWYN_6A-2" target="7xocbiBguHXkOmWYN_6A-35">
          <mxGeometry relative="1" as="geometry" />
        </mxCell>
        <mxCell id="7xocbiBguHXkOmWYN_6A-2" value="Jay Prezi : Student" style="swimlane;fontStyle=0;align=center;verticalAlign=top;childLayout=stackLayout;horizontal=1;startSize=26;horizontalStack=0;resizeParent=1;resizeLast=0;collapsible=1;marginBottom=0;rounded=0;shadow=0;strokeWidth=1;fillColor=#ffe6cc;strokeColor=#d79b00;" vertex="1" parent="1">
          <mxGeometry x="1508" y="46" width="191" height="140" as="geometry">
            <mxRectangle x="130" y="380" width="160" height="26" as="alternateBounds" />
          </mxGeometry>
        </mxCell>
        <mxCell id="7xocbiBguHXkOmWYN_6A-3" value="studentNumber = 482906" style="text;align=left;verticalAlign=top;spacingLeft=4;spacingRight=4;overflow=hidden;rotatable=0;points=[[0,0.5],[1,0.5]];portConstraint=eastwest;fontStyle=0" vertex="1" parent="7xocbiBguHXkOmWYN_6A-2">
          <mxGeometry y="26" width="191" height="26" as="geometry" />
        </mxCell>
        <mxCell id="7xocbiBguHXkOmWYN_6A-4" value="averageMark = 79" style="text;align=left;verticalAlign=top;spacingLeft=4;spacingRight=4;overflow=hidden;rotatable=0;points=[[0,0.5],[1,0.5]];portConstraint=eastwest;rounded=0;shadow=0;html=0;" vertex="1" parent="7xocbiBguHXkOmWYN_6A-2">
          <mxGeometry y="52" width="191" height="26" as="geometry" />
        </mxCell>
        <mxCell id="7xocbiBguHXkOmWYN_6A-5" value="" style="line;strokeWidth=1;rotatable=0;dashed=0;labelPosition=right;align=left;verticalAlign=middle;spacingTop=0;spacingLeft=6;points=[];portConstraint=eastwest;fontFamily=Helvetica;fontSize=12;fontColor=default;labelBackgroundColor=default;" vertex="1" parent="7xocbiBguHXkOmWYN_6A-2">
          <mxGeometry y="78" width="191" height="10" as="geometry" />
        </mxCell>
        <mxCell id="7xocbiBguHXkOmWYN_6A-6" value="phoneNumber = str" style="text;align=left;verticalAlign=top;spacingLeft=4;spacingRight=4;overflow=hidden;rotatable=0;points=[[0,0.5],[1,0.5]];portConstraint=eastwest;rounded=0;shadow=0;html=0;" vertex="1" parent="7xocbiBguHXkOmWYN_6A-2">
          <mxGeometry y="88" width="191" height="26" as="geometry" />
        </mxCell>
        <mxCell id="7xocbiBguHXkOmWYN_6A-7" value="emailAddress = jp89@final.com" style="text;align=left;verticalAlign=top;spacingLeft=4;spacingRight=4;overflow=hidden;rotatable=0;points=[[0,0.5],[1,0.5]];portConstraint=eastwest;rounded=0;shadow=0;html=0;" vertex="1" parent="7xocbiBguHXkOmWYN_6A-2">
          <mxGeometry y="114" width="191" height="26" as="geometry" />
        </mxCell>
        <mxCell id="7xocbiBguHXkOmWYN_6A-8" style="edgeStyle=none;shape=connector;curved=0;rounded=0;orthogonalLoop=1;jettySize=auto;html=1;strokeColor=default;align=center;verticalAlign=middle;fontFamily=Helvetica;fontSize=12;fontColor=default;labelBackgroundColor=default;startSize=8;endArrow=none;endFill=0;endSize=8;" edge="1" parent="1" source="7xocbiBguHXkOmWYN_6A-9" target="7xocbiBguHXkOmWYN_6A-42">
          <mxGeometry relative="1" as="geometry">
            <mxPoint x="1489" y="378" as="targetPoint" />
          </mxGeometry>
        </mxCell>
        <mxCell id="7xocbiBguHXkOmWYN_6A-9" value="Rua Dray : Student" style="swimlane;fontStyle=0;align=center;verticalAlign=top;childLayout=stackLayout;horizontal=1;startSize=26;horizontalStack=0;resizeParent=1;resizeLast=0;collapsible=1;marginBottom=0;rounded=0;shadow=0;strokeWidth=1;fillColor=#ffe6cc;strokeColor=#d79b00;" vertex="1" parent="1">
          <mxGeometry x="1508" y="308" width="191" height="140" as="geometry">
            <mxRectangle x="1369" y="296" width="160" height="26" as="alternateBounds" />
          </mxGeometry>
        </mxCell>
        <mxCell id="7xocbiBguHXkOmWYN_6A-10" value="studentNumber = 507608" style="text;align=left;verticalAlign=top;spacingLeft=4;spacingRight=4;overflow=hidden;rotatable=0;points=[[0,0.5],[1,0.5]];portConstraint=eastwest;fontStyle=0" vertex="1" parent="7xocbiBguHXkOmWYN_6A-9">
          <mxGeometry y="26" width="191" height="26" as="geometry" />
        </mxCell>
        <mxCell id="7xocbiBguHXkOmWYN_6A-11" value="averageMark = 91" style="text;align=left;verticalAlign=top;spacingLeft=4;spacingRight=4;overflow=hidden;rotatable=0;points=[[0,0.5],[1,0.5]];portConstraint=eastwest;rounded=0;shadow=0;html=0;" vertex="1" parent="7xocbiBguHXkOmWYN_6A-9">
          <mxGeometry y="52" width="191" height="26" as="geometry" />
        </mxCell>
        <mxCell id="7xocbiBguHXkOmWYN_6A-12" value="" style="line;strokeWidth=1;rotatable=0;dashed=0;labelPosition=right;align=left;verticalAlign=middle;spacingTop=0;spacingLeft=6;points=[];portConstraint=eastwest;fontFamily=Helvetica;fontSize=12;fontColor=default;labelBackgroundColor=default;" vertex="1" parent="7xocbiBguHXkOmWYN_6A-9">
          <mxGeometry y="78" width="191" height="10" as="geometry" />
        </mxCell>
        <mxCell id="7xocbiBguHXkOmWYN_6A-13" value="phoneNumber = 1068592" style="text;align=left;verticalAlign=top;spacingLeft=4;spacingRight=4;overflow=hidden;rotatable=0;points=[[0,0.5],[1,0.5]];portConstraint=eastwest;rounded=0;shadow=0;html=0;" vertex="1" parent="7xocbiBguHXkOmWYN_6A-9">
          <mxGeometry y="88" width="191" height="26" as="geometry" />
        </mxCell>
        <mxCell id="7xocbiBguHXkOmWYN_6A-14" value="emailAddress = nah@test.com" style="text;align=left;verticalAlign=top;spacingLeft=4;spacingRight=4;overflow=hidden;rotatable=0;points=[[0,0.5],[1,0.5]];portConstraint=eastwest;rounded=0;shadow=0;html=0;" vertex="1" parent="7xocbiBguHXkOmWYN_6A-9">
          <mxGeometry y="114" width="191" height="26" as="geometry" />
        </mxCell>
        <mxCell id="7xocbiBguHXkOmWYN_6A-15" style="edgeStyle=none;curved=0;rounded=0;orthogonalLoop=1;jettySize=auto;html=1;fontSize=12;startSize=8;endSize=8;endArrow=none;endFill=0;strokeColor=default;align=center;verticalAlign=middle;fontFamily=Helvetica;fontColor=default;labelBackgroundColor=default;" edge="1" parent="1" source="7xocbiBguHXkOmWYN_6A-17" target="7xocbiBguHXkOmWYN_6A-2">
          <mxGeometry relative="1" as="geometry" />
        </mxCell>
        <mxCell id="7xocbiBguHXkOmWYN_6A-16" style="edgeStyle=none;shape=connector;curved=0;rounded=0;orthogonalLoop=1;jettySize=auto;html=1;strokeColor=default;align=center;verticalAlign=middle;fontFamily=Helvetica;fontSize=12;fontColor=default;labelBackgroundColor=default;startSize=8;endArrow=none;endFill=0;endSize=8;" edge="1" parent="1" source="7xocbiBguHXkOmWYN_6A-17" target="7xocbiBguHXkOmWYN_6A-48">
          <mxGeometry relative="1" as="geometry">
            <mxPoint x="2019" y="116" as="targetPoint" />
          </mxGeometry>
        </mxCell>
        <mxCell id="7xocbiBguHXkOmWYN_6A-17" value="Karin Trier : Professor" style="swimlane;fontStyle=0;align=center;verticalAlign=top;childLayout=stackLayout;horizontal=1;startSize=26;horizontalStack=0;resizeParent=1;resizeLast=0;collapsible=1;marginBottom=0;rounded=0;shadow=0;strokeWidth=1;fillColor=#fff2cc;strokeColor=#d6b656;" vertex="1" parent="1">
          <mxGeometry x="1809" y="20" width="190" height="192" as="geometry">
            <mxRectangle x="340" y="380" width="170" height="26" as="alternateBounds" />
          </mxGeometry>
        </mxCell>
        <mxCell id="7xocbiBguHXkOmWYN_6A-18" value="salary = 79,000" style="text;align=left;verticalAlign=top;spacingLeft=4;spacingRight=4;overflow=hidden;rotatable=0;points=[[0,0.5],[1,0.5]];portConstraint=eastwest;" vertex="1" parent="7xocbiBguHXkOmWYN_6A-17">
          <mxGeometry y="26" width="190" height="26" as="geometry" />
        </mxCell>
        <mxCell id="7xocbiBguHXkOmWYN_6A-19" value="staffNumber = 148799" style="text;align=left;verticalAlign=top;spacingLeft=4;spacingRight=4;overflow=hidden;rotatable=0;points=[[0,0.5],[1,0.5]];portConstraint=eastwest;" vertex="1" parent="7xocbiBguHXkOmWYN_6A-17">
          <mxGeometry y="52" width="190" height="26" as="geometry" />
        </mxCell>
        <mxCell id="7xocbiBguHXkOmWYN_6A-20" value="yearsOfService = 10" style="text;align=left;verticalAlign=top;spacingLeft=4;spacingRight=4;overflow=hidden;rotatable=0;points=[[0,0.5],[1,0.5]];portConstraint=eastwest;" vertex="1" parent="7xocbiBguHXkOmWYN_6A-17">
          <mxGeometry y="78" width="190" height="26" as="geometry" />
        </mxCell>
        <mxCell id="7xocbiBguHXkOmWYN_6A-21" value="numberOfClasses = 5" style="text;align=left;verticalAlign=top;spacingLeft=4;spacingRight=4;overflow=hidden;rotatable=0;points=[[0,0.5],[1,0.5]];portConstraint=eastwest;" vertex="1" parent="7xocbiBguHXkOmWYN_6A-17">
          <mxGeometry y="104" width="190" height="26" as="geometry" />
        </mxCell>
        <mxCell id="7xocbiBguHXkOmWYN_6A-22" value="" style="line;strokeWidth=1;rotatable=0;dashed=0;labelPosition=right;align=left;verticalAlign=middle;spacingTop=0;spacingLeft=6;points=[];portConstraint=eastwest;fontFamily=Helvetica;fontSize=12;fontColor=default;labelBackgroundColor=default;" vertex="1" parent="7xocbiBguHXkOmWYN_6A-17">
          <mxGeometry y="130" width="190" height="10" as="geometry" />
        </mxCell>
        <mxCell id="7xocbiBguHXkOmWYN_6A-23" value="phoneNumber = 01824524" style="text;align=left;verticalAlign=top;spacingLeft=4;spacingRight=4;overflow=hidden;rotatable=0;points=[[0,0.5],[1,0.5]];portConstraint=eastwest;rounded=0;shadow=0;html=0;" vertex="1" parent="7xocbiBguHXkOmWYN_6A-17">
          <mxGeometry y="140" width="190" height="26" as="geometry" />
        </mxCell>
        <mxCell id="7xocbiBguHXkOmWYN_6A-24" value="emailAddress = ktrier@bl.edu" style="text;align=left;verticalAlign=top;spacingLeft=4;spacingRight=4;overflow=hidden;rotatable=0;points=[[0,0.5],[1,0.5]];portConstraint=eastwest;rounded=0;shadow=0;html=0;" vertex="1" parent="7xocbiBguHXkOmWYN_6A-17">
          <mxGeometry y="166" width="190" height="26" as="geometry" />
        </mxCell>
        <mxCell id="7xocbiBguHXkOmWYN_6A-25" style="edgeStyle=none;curved=0;rounded=0;orthogonalLoop=1;jettySize=auto;html=1;fontSize=12;startSize=8;endSize=8;endArrow=none;endFill=0;strokeColor=default;align=center;verticalAlign=middle;fontFamily=Helvetica;fontColor=default;labelBackgroundColor=default;" edge="1" parent="1" source="7xocbiBguHXkOmWYN_6A-27" target="7xocbiBguHXkOmWYN_6A-9">
          <mxGeometry relative="1" as="geometry" />
        </mxCell>
        <mxCell id="7xocbiBguHXkOmWYN_6A-26" style="edgeStyle=none;curved=0;rounded=0;orthogonalLoop=1;jettySize=auto;html=1;fontSize=12;startSize=8;endSize=8;endArrow=none;endFill=0;strokeColor=default;align=center;verticalAlign=middle;fontFamily=Helvetica;fontColor=default;labelBackgroundColor=default;" edge="1" parent="1" source="7xocbiBguHXkOmWYN_6A-27" target="7xocbiBguHXkOmWYN_6A-2">
          <mxGeometry relative="1" as="geometry">
            <Array as="points">
              <mxPoint x="1779" y="342" />
              <mxPoint x="1729" y="142" />
              <mxPoint x="1699" y="132" />
            </Array>
          </mxGeometry>
        </mxCell>
        <mxCell id="7xocbiBguHXkOmWYN_6A-27" value="Stef Jacobs : Professor" style="swimlane;fontStyle=0;align=center;verticalAlign=top;childLayout=stackLayout;horizontal=1;startSize=26;horizontalStack=0;resizeParent=1;resizeLast=0;collapsible=1;marginBottom=0;rounded=0;shadow=0;strokeWidth=1;fillColor=#fff2cc;strokeColor=#d6b656;" vertex="1" parent="1">
          <mxGeometry x="1809" y="282" width="190" height="192" as="geometry">
            <mxRectangle x="340" y="380" width="170" height="26" as="alternateBounds" />
          </mxGeometry>
        </mxCell>
        <mxCell id="7xocbiBguHXkOmWYN_6A-28" value="salary = 85,000" style="text;align=left;verticalAlign=top;spacingLeft=4;spacingRight=4;overflow=hidden;rotatable=0;points=[[0,0.5],[1,0.5]];portConstraint=eastwest;" vertex="1" parent="7xocbiBguHXkOmWYN_6A-27">
          <mxGeometry y="26" width="190" height="26" as="geometry" />
        </mxCell>
        <mxCell id="7xocbiBguHXkOmWYN_6A-29" value="staffNumber = 167294" style="text;align=left;verticalAlign=top;spacingLeft=4;spacingRight=4;overflow=hidden;rotatable=0;points=[[0,0.5],[1,0.5]];portConstraint=eastwest;" vertex="1" parent="7xocbiBguHXkOmWYN_6A-27">
          <mxGeometry y="52" width="190" height="26" as="geometry" />
        </mxCell>
        <mxCell id="7xocbiBguHXkOmWYN_6A-30" value="yearsOfService = 15" style="text;align=left;verticalAlign=top;spacingLeft=4;spacingRight=4;overflow=hidden;rotatable=0;points=[[0,0.5],[1,0.5]];portConstraint=eastwest;" vertex="1" parent="7xocbiBguHXkOmWYN_6A-27">
          <mxGeometry y="78" width="190" height="26" as="geometry" />
        </mxCell>
        <mxCell id="7xocbiBguHXkOmWYN_6A-31" value="numberOfClasses = 4" style="text;align=left;verticalAlign=top;spacingLeft=4;spacingRight=4;overflow=hidden;rotatable=0;points=[[0,0.5],[1,0.5]];portConstraint=eastwest;" vertex="1" parent="7xocbiBguHXkOmWYN_6A-27">
          <mxGeometry y="104" width="190" height="26" as="geometry" />
        </mxCell>
        <mxCell id="7xocbiBguHXkOmWYN_6A-32" value="" style="line;strokeWidth=1;rotatable=0;dashed=0;labelPosition=right;align=left;verticalAlign=middle;spacingTop=0;spacingLeft=6;points=[];portConstraint=eastwest;fontFamily=Helvetica;fontSize=12;fontColor=default;labelBackgroundColor=default;" vertex="1" parent="7xocbiBguHXkOmWYN_6A-27">
          <mxGeometry y="130" width="190" height="10" as="geometry" />
        </mxCell>
        <mxCell id="7xocbiBguHXkOmWYN_6A-33" value="phoneNumber = 01823452" style="text;align=left;verticalAlign=top;spacingLeft=4;spacingRight=4;overflow=hidden;rotatable=0;points=[[0,0.5],[1,0.5]];portConstraint=eastwest;rounded=0;shadow=0;html=0;" vertex="1" parent="7xocbiBguHXkOmWYN_6A-27">
          <mxGeometry y="140" width="190" height="26" as="geometry" />
        </mxCell>
        <mxCell id="7xocbiBguHXkOmWYN_6A-34" value="emailAddress =  sjacobs@bl.edu" style="text;align=left;verticalAlign=top;spacingLeft=4;spacingRight=4;overflow=hidden;rotatable=0;points=[[0,0.5],[1,0.5]];portConstraint=eastwest;rounded=0;shadow=0;html=0;" vertex="1" parent="7xocbiBguHXkOmWYN_6A-27">
          <mxGeometry y="166" width="190" height="26" as="geometry" />
        </mxCell>
        <mxCell id="7xocbiBguHXkOmWYN_6A-35" value="Address" style="swimlane;fontStyle=0;align=center;verticalAlign=top;childLayout=stackLayout;horizontal=1;startSize=26;horizontalStack=0;resizeParent=1;resizeLast=0;collapsible=1;marginBottom=0;rounded=0;shadow=0;strokeWidth=1;fillColor=#dae8fc;strokeColor=#6c8ebf;" vertex="1" parent="1">
          <mxGeometry x="1329" y="36" width="160" height="160" as="geometry">
            <mxRectangle x="550" y="140" width="160" height="26" as="alternateBounds" />
          </mxGeometry>
        </mxCell>
        <mxCell id="7xocbiBguHXkOmWYN_6A-36" value="street = 45 Rabin Avenue" style="text;align=left;verticalAlign=top;spacingLeft=4;spacingRight=4;overflow=hidden;rotatable=0;points=[[0,0.5],[1,0.5]];portConstraint=eastwest;" vertex="1" parent="7xocbiBguHXkOmWYN_6A-35">
          <mxGeometry y="26" width="160" height="26" as="geometry" />
        </mxCell>
        <mxCell id="7xocbiBguHXkOmWYN_6A-37" value="city = Clayton" style="text;align=left;verticalAlign=top;spacingLeft=4;spacingRight=4;overflow=hidden;rotatable=0;points=[[0,0.5],[1,0.5]];portConstraint=eastwest;rounded=0;shadow=0;html=0;" vertex="1" parent="7xocbiBguHXkOmWYN_6A-35">
          <mxGeometry y="52" width="160" height="26" as="geometry" />
        </mxCell>
        <mxCell id="7xocbiBguHXkOmWYN_6A-38" value="state = Victoria" style="text;align=left;verticalAlign=top;spacingLeft=4;spacingRight=4;overflow=hidden;rotatable=0;points=[[0,0.5],[1,0.5]];portConstraint=eastwest;rounded=0;shadow=0;html=0;" vertex="1" parent="7xocbiBguHXkOmWYN_6A-35">
          <mxGeometry y="78" width="160" height="26" as="geometry" />
        </mxCell>
        <mxCell id="7xocbiBguHXkOmWYN_6A-39" value="postalCode = 3168" style="text;align=left;verticalAlign=top;spacingLeft=4;spacingRight=4;overflow=hidden;rotatable=0;points=[[0,0.5],[1,0.5]];portConstraint=eastwest;rounded=0;shadow=0;html=0;" vertex="1" parent="7xocbiBguHXkOmWYN_6A-35">
          <mxGeometry y="104" width="160" height="26" as="geometry" />
        </mxCell>
        <mxCell id="7xocbiBguHXkOmWYN_6A-40" value="country = Australia" style="text;align=left;verticalAlign=top;spacingLeft=4;spacingRight=4;overflow=hidden;rotatable=0;points=[[0,0.5],[1,0.5]];portConstraint=eastwest;rounded=0;shadow=0;html=0;" vertex="1" parent="7xocbiBguHXkOmWYN_6A-35">
          <mxGeometry y="130" width="160" height="26" as="geometry" />
        </mxCell>
        <mxCell id="7xocbiBguHXkOmWYN_6A-41" style="edgeStyle=none;shape=connector;curved=0;rounded=0;orthogonalLoop=1;jettySize=auto;html=1;strokeColor=default;align=center;verticalAlign=middle;fontFamily=Helvetica;fontSize=12;fontColor=default;labelBackgroundColor=default;startSize=8;endArrow=none;endFill=0;endSize=8;" edge="1" parent="1" source="7xocbiBguHXkOmWYN_6A-30" target="7xocbiBguHXkOmWYN_6A-54">
          <mxGeometry relative="1" as="geometry">
            <mxPoint x="2019" y="375.948717948718" as="targetPoint" />
          </mxGeometry>
        </mxCell>
        <mxCell id="7xocbiBguHXkOmWYN_6A-42" value="Address" style="swimlane;fontStyle=0;align=center;verticalAlign=top;childLayout=stackLayout;horizontal=1;startSize=26;horizontalStack=0;resizeParent=1;resizeLast=0;collapsible=1;marginBottom=0;rounded=0;shadow=0;strokeWidth=1;fillColor=#dae8fc;strokeColor=#6c8ebf;" vertex="1" parent="1">
          <mxGeometry x="1329" y="298" width="160" height="160" as="geometry">
            <mxRectangle x="550" y="140" width="160" height="26" as="alternateBounds" />
          </mxGeometry>
        </mxCell>
        <mxCell id="7xocbiBguHXkOmWYN_6A-43" value="street = 45 Rabin Avenue" style="text;align=left;verticalAlign=top;spacingLeft=4;spacingRight=4;overflow=hidden;rotatable=0;points=[[0,0.5],[1,0.5]];portConstraint=eastwest;" vertex="1" parent="7xocbiBguHXkOmWYN_6A-42">
          <mxGeometry y="26" width="160" height="26" as="geometry" />
        </mxCell>
        <mxCell id="7xocbiBguHXkOmWYN_6A-44" value="city = Clayton" style="text;align=left;verticalAlign=top;spacingLeft=4;spacingRight=4;overflow=hidden;rotatable=0;points=[[0,0.5],[1,0.5]];portConstraint=eastwest;rounded=0;shadow=0;html=0;" vertex="1" parent="7xocbiBguHXkOmWYN_6A-42">
          <mxGeometry y="52" width="160" height="26" as="geometry" />
        </mxCell>
        <mxCell id="7xocbiBguHXkOmWYN_6A-45" value="state = Victoria" style="text;align=left;verticalAlign=top;spacingLeft=4;spacingRight=4;overflow=hidden;rotatable=0;points=[[0,0.5],[1,0.5]];portConstraint=eastwest;rounded=0;shadow=0;html=0;" vertex="1" parent="7xocbiBguHXkOmWYN_6A-42">
          <mxGeometry y="78" width="160" height="26" as="geometry" />
        </mxCell>
        <mxCell id="7xocbiBguHXkOmWYN_6A-46" value="postalCode = 3168" style="text;align=left;verticalAlign=top;spacingLeft=4;spacingRight=4;overflow=hidden;rotatable=0;points=[[0,0.5],[1,0.5]];portConstraint=eastwest;rounded=0;shadow=0;html=0;" vertex="1" parent="7xocbiBguHXkOmWYN_6A-42">
          <mxGeometry y="104" width="160" height="26" as="geometry" />
        </mxCell>
        <mxCell id="7xocbiBguHXkOmWYN_6A-47" value="country = Australia" style="text;align=left;verticalAlign=top;spacingLeft=4;spacingRight=4;overflow=hidden;rotatable=0;points=[[0,0.5],[1,0.5]];portConstraint=eastwest;rounded=0;shadow=0;html=0;" vertex="1" parent="7xocbiBguHXkOmWYN_6A-42">
          <mxGeometry y="130" width="160" height="26" as="geometry" />
        </mxCell>
        <mxCell id="7xocbiBguHXkOmWYN_6A-48" value="Address" style="swimlane;fontStyle=0;align=center;verticalAlign=top;childLayout=stackLayout;horizontal=1;startSize=26;horizontalStack=0;resizeParent=1;resizeLast=0;collapsible=1;marginBottom=0;rounded=0;shadow=0;strokeWidth=1;fillColor=#dae8fc;strokeColor=#6c8ebf;" vertex="1" parent="1">
          <mxGeometry x="2019" y="32" width="160" height="160" as="geometry">
            <mxRectangle x="550" y="140" width="160" height="26" as="alternateBounds" />
          </mxGeometry>
        </mxCell>
        <mxCell id="7xocbiBguHXkOmWYN_6A-49" value="street = 86 Roy Street" style="text;align=left;verticalAlign=top;spacingLeft=4;spacingRight=4;overflow=hidden;rotatable=0;points=[[0,0.5],[1,0.5]];portConstraint=eastwest;" vertex="1" parent="7xocbiBguHXkOmWYN_6A-48">
          <mxGeometry y="26" width="160" height="26" as="geometry" />
        </mxCell>
        <mxCell id="7xocbiBguHXkOmWYN_6A-50" value="city = Eltham" style="text;align=left;verticalAlign=top;spacingLeft=4;spacingRight=4;overflow=hidden;rotatable=0;points=[[0,0.5],[1,0.5]];portConstraint=eastwest;rounded=0;shadow=0;html=0;" vertex="1" parent="7xocbiBguHXkOmWYN_6A-48">
          <mxGeometry y="52" width="160" height="26" as="geometry" />
        </mxCell>
        <mxCell id="7xocbiBguHXkOmWYN_6A-51" value="state = Victoria" style="text;align=left;verticalAlign=top;spacingLeft=4;spacingRight=4;overflow=hidden;rotatable=0;points=[[0,0.5],[1,0.5]];portConstraint=eastwest;rounded=0;shadow=0;html=0;" vertex="1" parent="7xocbiBguHXkOmWYN_6A-48">
          <mxGeometry y="78" width="160" height="26" as="geometry" />
        </mxCell>
        <mxCell id="7xocbiBguHXkOmWYN_6A-52" value="postalCode = 3095" style="text;align=left;verticalAlign=top;spacingLeft=4;spacingRight=4;overflow=hidden;rotatable=0;points=[[0,0.5],[1,0.5]];portConstraint=eastwest;rounded=0;shadow=0;html=0;" vertex="1" parent="7xocbiBguHXkOmWYN_6A-48">
          <mxGeometry y="104" width="160" height="26" as="geometry" />
        </mxCell>
        <mxCell id="7xocbiBguHXkOmWYN_6A-53" value="country = Australia" style="text;align=left;verticalAlign=top;spacingLeft=4;spacingRight=4;overflow=hidden;rotatable=0;points=[[0,0.5],[1,0.5]];portConstraint=eastwest;rounded=0;shadow=0;html=0;" vertex="1" parent="7xocbiBguHXkOmWYN_6A-48">
          <mxGeometry y="130" width="160" height="26" as="geometry" />
        </mxCell>
        <mxCell id="7xocbiBguHXkOmWYN_6A-54" value="Address" style="swimlane;fontStyle=0;align=center;verticalAlign=top;childLayout=stackLayout;horizontal=1;startSize=26;horizontalStack=0;resizeParent=1;resizeLast=0;collapsible=1;marginBottom=0;rounded=0;shadow=0;strokeWidth=1;fillColor=#dae8fc;strokeColor=#6c8ebf;" vertex="1" parent="1">
          <mxGeometry x="2019" y="298" width="160" height="160" as="geometry">
            <mxRectangle x="550" y="140" width="160" height="26" as="alternateBounds" />
          </mxGeometry>
        </mxCell>
        <mxCell id="7xocbiBguHXkOmWYN_6A-55" value="street = 2B Jan Drive" style="text;align=left;verticalAlign=top;spacingLeft=4;spacingRight=4;overflow=hidden;rotatable=0;points=[[0,0.5],[1,0.5]];portConstraint=eastwest;" vertex="1" parent="7xocbiBguHXkOmWYN_6A-54">
          <mxGeometry y="26" width="160" height="26" as="geometry" />
        </mxCell>
        <mxCell id="7xocbiBguHXkOmWYN_6A-56" value="city = Glen Waverley" style="text;align=left;verticalAlign=top;spacingLeft=4;spacingRight=4;overflow=hidden;rotatable=0;points=[[0,0.5],[1,0.5]];portConstraint=eastwest;rounded=0;shadow=0;html=0;" vertex="1" parent="7xocbiBguHXkOmWYN_6A-54">
          <mxGeometry y="52" width="160" height="26" as="geometry" />
        </mxCell>
        <mxCell id="7xocbiBguHXkOmWYN_6A-57" value="state = Victoria" style="text;align=left;verticalAlign=top;spacingLeft=4;spacingRight=4;overflow=hidden;rotatable=0;points=[[0,0.5],[1,0.5]];portConstraint=eastwest;rounded=0;shadow=0;html=0;" vertex="1" parent="7xocbiBguHXkOmWYN_6A-54">
          <mxGeometry y="78" width="160" height="26" as="geometry" />
        </mxCell>
        <mxCell id="7xocbiBguHXkOmWYN_6A-58" value="postalCode = 3150" style="text;align=left;verticalAlign=top;spacingLeft=4;spacingRight=4;overflow=hidden;rotatable=0;points=[[0,0.5],[1,0.5]];portConstraint=eastwest;rounded=0;shadow=0;html=0;" vertex="1" parent="7xocbiBguHXkOmWYN_6A-54">
          <mxGeometry y="104" width="160" height="26" as="geometry" />
        </mxCell>
        <mxCell id="7xocbiBguHXkOmWYN_6A-59" value="country = Australia" style="text;align=left;verticalAlign=top;spacingLeft=4;spacingRight=4;overflow=hidden;rotatable=0;points=[[0,0.5],[1,0.5]];portConstraint=eastwest;rounded=0;shadow=0;html=0;" vertex="1" parent="7xocbiBguHXkOmWYN_6A-54">
          <mxGeometry y="130" width="160" height="26" as="geometry" />
        </mxCell>
      </root>
    </mxGraphModel>
  </diagram>
  <diagram name="class to object" id="P0GuW0m8wbhAww9dqu_2">
    <mxGraphModel dx="1933" dy="1099" grid="1" gridSize="10" guides="1" tooltips="1" connect="1" arrows="1" fold="1" page="0" pageScale="1" pageWidth="1169" pageHeight="827" math="0" shadow="0">
      <root>
        <mxCell id="pzczP67oPYf6B7buiO8z-0" />
        <mxCell id="pzczP67oPYf6B7buiO8z-1" parent="pzczP67oPYf6B7buiO8z-0" />
        <mxCell id="gTc1_8ZYi1Vy21XJE6t1-2" value="" style="shape=link;html=1;rounded=0;strokeColor=#666666;align=center;verticalAlign=middle;fontFamily=Helvetica;fontSize=12;fontColor=default;labelBackgroundColor=default;edgeStyle=none;startSize=8;endArrow=none;endFill=0;endSize=8;curved=0;" edge="1" parent="pzczP67oPYf6B7buiO8z-1">
          <mxGeometry width="100" relative="1" as="geometry">
            <mxPoint x="320" y="370" as="sourcePoint" />
            <mxPoint x="320" y="820" as="targetPoint" />
          </mxGeometry>
        </mxCell>
        <mxCell id="gTc1_8ZYi1Vy21XJE6t1-3" value="Class Diagram" style="text;html=1;align=center;verticalAlign=middle;whiteSpace=wrap;rounded=0;fontSize=12;fontFamily=Helvetica;fontColor=default;labelBackgroundColor=default;fontStyle=1" vertex="1" parent="pzczP67oPYf6B7buiO8z-1">
          <mxGeometry x="132.89" y="380" width="190" height="30" as="geometry" />
        </mxCell>
        <mxCell id="gTc1_8ZYi1Vy21XJE6t1-4" value="Object Diagram" style="text;html=1;align=center;verticalAlign=middle;whiteSpace=wrap;rounded=0;fontSize=12;fontFamily=Helvetica;fontColor=default;labelBackgroundColor=default;fontStyle=1" vertex="1" parent="pzczP67oPYf6B7buiO8z-1">
          <mxGeometry x="300" y="380" width="190" height="30" as="geometry" />
        </mxCell>
        <mxCell id="pzczP67oPYf6B7buiO8z-2" value="Person" style="swimlane;fontStyle=2;align=center;verticalAlign=top;childLayout=stackLayout;horizontal=1;startSize=26;horizontalStack=0;resizeParent=1;resizeLast=0;collapsible=1;marginBottom=0;rounded=0;shadow=0;strokeWidth=1;fillColor=#f8cecc;strokeColor=#b85450;fontColor=#1A1A1A;" parent="pzczP67oPYf6B7buiO8z-1" vertex="1">
          <mxGeometry x="-103.8095238095238" y="430" width="144.2176870748299" height="118.86432160804017" as="geometry">
            <mxRectangle x="230" y="140" width="160" height="26" as="alternateBounds" />
          </mxGeometry>
        </mxCell>
        <mxCell id="pzczP67oPYf6B7buiO8z-3" value="+name: str" style="text;align=left;verticalAlign=top;spacingLeft=4;spacingRight=4;overflow=hidden;rotatable=0;points=[[0,0.5],[1,0.5]];portConstraint=eastwest;fontColor=#1A1A1A;" parent="pzczP67oPYf6B7buiO8z-2" vertex="1">
          <mxGeometry y="26" width="144.2176870748299" height="21.557788944723615" as="geometry" />
        </mxCell>
        <mxCell id="pzczP67oPYf6B7buiO8z-4" value="+phoneNumber: str" style="text;align=left;verticalAlign=top;spacingLeft=4;spacingRight=4;overflow=hidden;rotatable=0;points=[[0,0.5],[1,0.5]];portConstraint=eastwest;rounded=0;shadow=0;html=0;fontColor=#1A1A1A;" parent="pzczP67oPYf6B7buiO8z-2" vertex="1">
          <mxGeometry y="47.55778894472361" width="144.2176870748299" height="21.557788944723615" as="geometry" />
        </mxCell>
        <mxCell id="pzczP67oPYf6B7buiO8z-5" value="+emailAddress: str" style="text;align=left;verticalAlign=top;spacingLeft=4;spacingRight=4;overflow=hidden;rotatable=0;points=[[0,0.5],[1,0.5]];portConstraint=eastwest;rounded=0;shadow=0;html=0;fontColor=#1A1A1A;" parent="pzczP67oPYf6B7buiO8z-2" vertex="1">
          <mxGeometry y="69.11557788944722" width="144.2176870748299" height="21.557788944723615" as="geometry" />
        </mxCell>
        <mxCell id="pzczP67oPYf6B7buiO8z-6" value="" style="line;html=1;strokeWidth=1;align=left;verticalAlign=middle;spacingTop=-1;spacingLeft=3;spacingRight=3;rotatable=0;labelPosition=right;points=[];portConstraint=eastwest;fontColor=#1A1A1A;" parent="pzczP67oPYf6B7buiO8z-2" vertex="1">
          <mxGeometry y="90.67336683417084" width="144.2176870748299" height="6.633165829145728" as="geometry" />
        </mxCell>
        <mxCell id="pzczP67oPYf6B7buiO8z-7" value="+purchaseParkingPass()" style="text;align=left;verticalAlign=top;spacingLeft=4;spacingRight=4;overflow=hidden;rotatable=0;points=[[0,0.5],[1,0.5]];portConstraint=eastwest;fontColor=#1A1A1A;" parent="pzczP67oPYf6B7buiO8z-2" vertex="1">
          <mxGeometry y="97.30653266331656" width="144.2176870748299" height="21.557788944723615" as="geometry" />
        </mxCell>
        <mxCell id="pzczP67oPYf6B7buiO8z-8" value="Student" style="swimlane;fontStyle=0;align=center;verticalAlign=top;childLayout=stackLayout;horizontal=1;startSize=26;horizontalStack=0;resizeParent=1;resizeLast=0;collapsible=1;marginBottom=0;rounded=0;shadow=0;strokeWidth=1;fillColor=#ffe6cc;strokeColor=#d79b00;fontColor=#1A1A1A;" parent="pzczP67oPYf6B7buiO8z-1" vertex="1">
          <mxGeometry x="-230" y="645.5778894472362" width="144.2176870748299" height="118.86432160804017" as="geometry">
            <mxRectangle x="130" y="380" width="160" height="26" as="alternateBounds" />
          </mxGeometry>
        </mxCell>
        <mxCell id="pzczP67oPYf6B7buiO8z-9" value="+studentNumber: int" style="text;align=left;verticalAlign=top;spacingLeft=4;spacingRight=4;overflow=hidden;rotatable=0;points=[[0,0.5],[1,0.5]];portConstraint=eastwest;fontStyle=0;fontColor=#1A1A1A;" parent="pzczP67oPYf6B7buiO8z-8" vertex="1">
          <mxGeometry y="26" width="144.2176870748299" height="21.557788944723615" as="geometry" />
        </mxCell>
        <mxCell id="pzczP67oPYf6B7buiO8z-10" value="+averageMark: int" style="text;align=left;verticalAlign=top;spacingLeft=4;spacingRight=4;overflow=hidden;rotatable=0;points=[[0,0.5],[1,0.5]];portConstraint=eastwest;rounded=0;shadow=0;html=0;fontColor=#1A1A1A;" parent="pzczP67oPYf6B7buiO8z-8" vertex="1">
          <mxGeometry y="47.55778894472361" width="144.2176870748299" height="21.557788944723615" as="geometry" />
        </mxCell>
        <mxCell id="pzczP67oPYf6B7buiO8z-11" value="" style="line;html=1;strokeWidth=1;align=left;verticalAlign=middle;spacingTop=-1;spacingLeft=3;spacingRight=3;rotatable=0;labelPosition=right;points=[];portConstraint=eastwest;fontColor=#1A1A1A;" parent="pzczP67oPYf6B7buiO8z-8" vertex="1">
          <mxGeometry y="69.11557788944722" width="144.2176870748299" height="6.633165829145728" as="geometry" />
        </mxCell>
        <mxCell id="pzczP67oPYf6B7buiO8z-12" value="+isEligibleToEnroll(str): bool" style="text;align=left;verticalAlign=top;spacingLeft=4;spacingRight=4;overflow=hidden;rotatable=0;points=[[0,0.5],[1,0.5]];portConstraint=eastwest;fontStyle=4;fontColor=#1A1A1A;" parent="pzczP67oPYf6B7buiO8z-8" vertex="1">
          <mxGeometry y="75.74874371859295" width="144.2176870748299" height="21.557788944723615" as="geometry" />
        </mxCell>
        <mxCell id="pzczP67oPYf6B7buiO8z-13" value="+getSeminarsTaken(): int" style="text;align=left;verticalAlign=top;spacingLeft=4;spacingRight=4;overflow=hidden;rotatable=0;points=[[0,0.5],[1,0.5]];portConstraint=eastwest;fontColor=#1A1A1A;" parent="pzczP67oPYf6B7buiO8z-8" vertex="1">
          <mxGeometry y="97.30653266331656" width="144.2176870748299" height="21.557788944723615" as="geometry" />
        </mxCell>
        <mxCell id="pzczP67oPYf6B7buiO8z-14" value="" style="endArrow=block;endSize=10;endFill=0;shadow=0;strokeWidth=1;rounded=0;edgeStyle=elbowEdgeStyle;elbow=vertical;fontColor=#1A1A1A;" parent="pzczP67oPYf6B7buiO8z-1" source="pzczP67oPYf6B7buiO8z-8" target="pzczP67oPYf6B7buiO8z-2" edge="1">
          <mxGeometry width="160" relative="1" as="geometry">
            <mxPoint x="-121.83673469387755" y="498.81909547738695" as="sourcePoint" />
            <mxPoint x="-121.83673469387755" y="498.81909547738695" as="targetPoint" />
          </mxGeometry>
        </mxCell>
        <mxCell id="pzczP67oPYf6B7buiO8z-15" value="Professor" style="swimlane;fontStyle=0;align=center;verticalAlign=top;childLayout=stackLayout;horizontal=1;startSize=26;horizontalStack=0;resizeParent=1;resizeLast=0;collapsible=1;marginBottom=0;rounded=0;shadow=0;strokeWidth=1;fillColor=#fff2cc;strokeColor=#d6b656;fontColor=#1A1A1A;" parent="pzczP67oPYf6B7buiO8z-1" vertex="1">
          <mxGeometry x="40.40816326530609" y="645.5778894472362" width="144.2176870748299" height="118.86432160804017" as="geometry">
            <mxRectangle x="340" y="380" width="170" height="26" as="alternateBounds" />
          </mxGeometry>
        </mxCell>
        <mxCell id="pzczP67oPYf6B7buiO8z-16" value="/salary: int" style="text;align=left;verticalAlign=top;spacingLeft=4;spacingRight=4;overflow=hidden;rotatable=0;points=[[0,0.5],[1,0.5]];portConstraint=eastwest;fontColor=#1A1A1A;" parent="pzczP67oPYf6B7buiO8z-15" vertex="1">
          <mxGeometry y="26" width="144.2176870748299" height="21.557788944723615" as="geometry" />
        </mxCell>
        <mxCell id="JW6PrNe1bxVS56QCjVLZ-0" value="#staffNumber: int" style="text;align=left;verticalAlign=top;spacingLeft=4;spacingRight=4;overflow=hidden;rotatable=0;points=[[0,0.5],[1,0.5]];portConstraint=eastwest;fontColor=#1A1A1A;" parent="pzczP67oPYf6B7buiO8z-15" vertex="1">
          <mxGeometry y="47.55778894472361" width="144.2176870748299" height="21.557788944723615" as="geometry" />
        </mxCell>
        <mxCell id="aZciTYqOEJMMC_ZfQV8L-3" value="-yearsOfService: int" style="text;align=left;verticalAlign=top;spacingLeft=4;spacingRight=4;overflow=hidden;rotatable=0;points=[[0,0.5],[1,0.5]];portConstraint=eastwest;fontColor=#1A1A1A;" parent="pzczP67oPYf6B7buiO8z-15" vertex="1">
          <mxGeometry y="69.11557788944722" width="144.2176870748299" height="21.557788944723615" as="geometry" />
        </mxCell>
        <mxCell id="aZciTYqOEJMMC_ZfQV8L-4" value="+numberOfClasses: int" style="text;align=left;verticalAlign=top;spacingLeft=4;spacingRight=4;overflow=hidden;rotatable=0;points=[[0,0.5],[1,0.5]];portConstraint=eastwest;fontColor=#1A1A1A;" parent="pzczP67oPYf6B7buiO8z-15" vertex="1">
          <mxGeometry y="90.67336683417084" width="144.2176870748299" height="21.557788944723615" as="geometry" />
        </mxCell>
        <mxCell id="pzczP67oPYf6B7buiO8z-17" value="" style="line;html=1;strokeWidth=1;align=left;verticalAlign=middle;spacingTop=-1;spacingLeft=3;spacingRight=3;rotatable=0;labelPosition=right;points=[];portConstraint=eastwest;fontColor=#1A1A1A;" parent="pzczP67oPYf6B7buiO8z-15" vertex="1">
          <mxGeometry y="112.23115577889445" width="144.2176870748299" height="6.633165829145728" as="geometry" />
        </mxCell>
        <mxCell id="pzczP67oPYf6B7buiO8z-18" value="" style="endArrow=block;endSize=10;endFill=0;shadow=0;strokeWidth=1;rounded=0;edgeStyle=elbowEdgeStyle;elbow=vertical;fontColor=#1A1A1A;" parent="pzczP67oPYf6B7buiO8z-1" source="pzczP67oPYf6B7buiO8z-15" target="pzczP67oPYf6B7buiO8z-2" edge="1">
          <mxGeometry width="160" relative="1" as="geometry">
            <mxPoint x="-112.82312925170069" y="639.7738693467337" as="sourcePoint" />
            <mxPoint x="-22.687074829932016" y="555.2010050251256" as="targetPoint" />
          </mxGeometry>
        </mxCell>
        <mxCell id="pzczP67oPYf6B7buiO8z-19" value="Address" style="swimlane;fontStyle=0;align=center;verticalAlign=top;childLayout=stackLayout;horizontal=1;startSize=26;horizontalStack=0;resizeParent=1;resizeLast=0;collapsible=1;marginBottom=0;rounded=0;shadow=0;strokeWidth=1;fillColor=#dae8fc;strokeColor=#6c8ebf;fontColor=#1A1A1A;" parent="pzczP67oPYf6B7buiO8z-1" vertex="1">
          <mxGeometry x="155.78231292517012" y="430" width="144.2176870748299" height="183.53768844221105" as="geometry">
            <mxRectangle x="550" y="140" width="160" height="26" as="alternateBounds" />
          </mxGeometry>
        </mxCell>
        <mxCell id="pzczP67oPYf6B7buiO8z-20" value="+street: str" style="text;align=left;verticalAlign=top;spacingLeft=4;spacingRight=4;overflow=hidden;rotatable=0;points=[[0,0.5],[1,0.5]];portConstraint=eastwest;fontColor=#1A1A1A;" parent="pzczP67oPYf6B7buiO8z-19" vertex="1">
          <mxGeometry y="26" width="144.2176870748299" height="21.557788944723615" as="geometry" />
        </mxCell>
        <mxCell id="pzczP67oPYf6B7buiO8z-21" value="+city: str" style="text;align=left;verticalAlign=top;spacingLeft=4;spacingRight=4;overflow=hidden;rotatable=0;points=[[0,0.5],[1,0.5]];portConstraint=eastwest;rounded=0;shadow=0;html=0;fontColor=#1A1A1A;" parent="pzczP67oPYf6B7buiO8z-19" vertex="1">
          <mxGeometry y="47.55778894472361" width="144.2176870748299" height="21.557788944723615" as="geometry" />
        </mxCell>
        <mxCell id="pzczP67oPYf6B7buiO8z-22" value="+state: str" style="text;align=left;verticalAlign=top;spacingLeft=4;spacingRight=4;overflow=hidden;rotatable=0;points=[[0,0.5],[1,0.5]];portConstraint=eastwest;rounded=0;shadow=0;html=0;fontColor=#1A1A1A;" parent="pzczP67oPYf6B7buiO8z-19" vertex="1">
          <mxGeometry y="69.11557788944722" width="144.2176870748299" height="21.557788944723615" as="geometry" />
        </mxCell>
        <mxCell id="pzczP67oPYf6B7buiO8z-23" value="+postalCode: int" style="text;align=left;verticalAlign=top;spacingLeft=4;spacingRight=4;overflow=hidden;rotatable=0;points=[[0,0.5],[1,0.5]];portConstraint=eastwest;rounded=0;shadow=0;html=0;fontColor=#1A1A1A;" parent="pzczP67oPYf6B7buiO8z-19" vertex="1">
          <mxGeometry y="90.67336683417084" width="144.2176870748299" height="21.557788944723615" as="geometry" />
        </mxCell>
        <mxCell id="pzczP67oPYf6B7buiO8z-24" value="+country: str" style="text;align=left;verticalAlign=top;spacingLeft=4;spacingRight=4;overflow=hidden;rotatable=0;points=[[0,0.5],[1,0.5]];portConstraint=eastwest;rounded=0;shadow=0;html=0;fontColor=#1A1A1A;" parent="pzczP67oPYf6B7buiO8z-19" vertex="1">
          <mxGeometry y="112.23115577889445" width="144.2176870748299" height="21.557788944723615" as="geometry" />
        </mxCell>
        <mxCell id="pzczP67oPYf6B7buiO8z-25" value="" style="line;html=1;strokeWidth=1;align=left;verticalAlign=middle;spacingTop=-1;spacingLeft=3;spacingRight=3;rotatable=0;labelPosition=right;points=[];portConstraint=eastwest;fontColor=#1A1A1A;" parent="pzczP67oPYf6B7buiO8z-19" vertex="1">
          <mxGeometry y="133.78894472361807" width="144.2176870748299" height="6.633165829145728" as="geometry" />
        </mxCell>
        <mxCell id="pzczP67oPYf6B7buiO8z-26" value="-validate(): bool" style="text;align=left;verticalAlign=top;spacingLeft=4;spacingRight=4;overflow=hidden;rotatable=0;points=[[0,0.5],[1,0.5]];portConstraint=eastwest;fontColor=#1A1A1A;" parent="pzczP67oPYf6B7buiO8z-19" vertex="1">
          <mxGeometry y="140.4221105527638" width="144.2176870748299" height="21.557788944723615" as="geometry" />
        </mxCell>
        <mxCell id="pzczP67oPYf6B7buiO8z-27" value="+outputAsLabel(): str" style="text;align=left;verticalAlign=top;spacingLeft=4;spacingRight=4;overflow=hidden;rotatable=0;points=[[0,0.5],[1,0.5]];portConstraint=eastwest;fontColor=#1A1A1A;" parent="pzczP67oPYf6B7buiO8z-19" vertex="1">
          <mxGeometry y="161.97989949748742" width="144.2176870748299" height="21.557788944723615" as="geometry" />
        </mxCell>
        <mxCell id="pzczP67oPYf6B7buiO8z-28" value="" style="endArrow=open;shadow=0;strokeWidth=1;rounded=0;endFill=1;edgeStyle=elbowEdgeStyle;elbow=vertical;fontColor=#1A1A1A;" parent="pzczP67oPYf6B7buiO8z-1" source="pzczP67oPYf6B7buiO8z-2" target="pzczP67oPYf6B7buiO8z-19" edge="1">
          <mxGeometry x="0.5" y="41" relative="1" as="geometry">
            <mxPoint x="40.40816326530609" y="489.69849246231155" as="sourcePoint" />
            <mxPoint x="184.62585034013597" y="489.69849246231155" as="targetPoint" />
            <mxPoint x="-40" y="32" as="offset" />
          </mxGeometry>
        </mxCell>
        <mxCell id="pzczP67oPYf6B7buiO8z-29" value="0..1" style="resizable=0;align=left;verticalAlign=bottom;labelBackgroundColor=none;fontSize=12;fontColor=#1A1A1A;" parent="pzczP67oPYf6B7buiO8z-28" connectable="0" vertex="1">
          <mxGeometry x="-1" relative="1" as="geometry">
            <mxPoint y="1" as="offset" />
          </mxGeometry>
        </mxCell>
        <mxCell id="pzczP67oPYf6B7buiO8z-30" value="1" style="resizable=0;align=right;verticalAlign=bottom;labelBackgroundColor=none;fontSize=12;fontColor=#1A1A1A;" parent="pzczP67oPYf6B7buiO8z-28" connectable="0" vertex="1">
          <mxGeometry x="1" relative="1" as="geometry">
            <mxPoint x="-7" y="21" as="offset" />
          </mxGeometry>
        </mxCell>
        <mxCell id="pzczP67oPYf6B7buiO8z-31" value="lives at" style="text;html=1;resizable=0;points=[];;align=center;verticalAlign=middle;labelBackgroundColor=none;rounded=0;shadow=0;strokeWidth=1;fontSize=12;fontColor=#1A1A1A;" parent="pzczP67oPYf6B7buiO8z-28" vertex="1" connectable="0">
          <mxGeometry x="0.5" y="49" relative="1" as="geometry">
            <mxPoint x="-38" y="40" as="offset" />
          </mxGeometry>
        </mxCell>
        <mxCell id="aZciTYqOEJMMC_ZfQV8L-0" value="supervises" style="edgeStyle=orthogonalEdgeStyle;rounded=0;orthogonalLoop=1;jettySize=auto;html=1;entryX=1;entryY=0.5;entryDx=0;entryDy=0;endArrow=open;endFill=0;fontColor=#1A1A1A;" parent="pzczP67oPYf6B7buiO8z-1" source="pzczP67oPYf6B7buiO8z-16" target="pzczP67oPYf6B7buiO8z-9" edge="1">
          <mxGeometry y="-9" relative="1" as="geometry">
            <mxPoint as="offset" />
          </mxGeometry>
        </mxCell>
        <mxCell id="aZciTYqOEJMMC_ZfQV8L-1" value="0...*" style="edgeLabel;html=1;align=center;verticalAlign=middle;resizable=0;points=[];fontColor=#1A1A1A;" parent="aZciTYqOEJMMC_ZfQV8L-0" vertex="1" connectable="0">
          <mxGeometry x="0.8857" y="-2" relative="1" as="geometry">
            <mxPoint x="12" y="-11" as="offset" />
          </mxGeometry>
        </mxCell>
        <mxCell id="aZciTYqOEJMMC_ZfQV8L-2" value="1...5" style="edgeLabel;html=1;align=center;verticalAlign=middle;resizable=0;points=[];fontColor=#1A1A1A;" parent="aZciTYqOEJMMC_ZfQV8L-0" vertex="1" connectable="0">
          <mxGeometry x="-0.8286" relative="1" as="geometry">
            <mxPoint y="11" as="offset" />
          </mxGeometry>
        </mxCell>
        <mxCell id="D3oM_xfST8fhxiBOgWNQ-150" style="edgeStyle=none;shape=connector;curved=0;rounded=0;orthogonalLoop=1;jettySize=auto;html=1;strokeColor=default;align=center;verticalAlign=middle;fontFamily=Helvetica;fontSize=12;fontColor=default;labelBackgroundColor=default;startSize=8;endArrow=none;endFill=0;endSize=8;" edge="1" parent="pzczP67oPYf6B7buiO8z-1" source="D3oM_xfST8fhxiBOgWNQ-0" target="D3oM_xfST8fhxiBOgWNQ-136">
          <mxGeometry relative="1" as="geometry" />
        </mxCell>
        <mxCell id="D3oM_xfST8fhxiBOgWNQ-0" value="Jay Prezi : Student" style="swimlane;fontStyle=0;align=center;verticalAlign=top;childLayout=stackLayout;horizontal=1;startSize=26;horizontalStack=0;resizeParent=1;resizeLast=0;collapsible=1;marginBottom=0;rounded=0;shadow=0;strokeWidth=1;fillColor=#ffe6cc;strokeColor=#d79b00;" vertex="1" parent="pzczP67oPYf6B7buiO8z-1">
          <mxGeometry x="516.364705882353" y="423.93832599118946" width="177.51764705882354" height="130.9603524229075" as="geometry">
            <mxRectangle x="130" y="380" width="160" height="26" as="alternateBounds" />
          </mxGeometry>
        </mxCell>
        <mxCell id="D3oM_xfST8fhxiBOgWNQ-1" value="studentNumber = 482906" style="text;align=left;verticalAlign=top;spacingLeft=4;spacingRight=4;overflow=hidden;rotatable=0;points=[[0,0.5],[1,0.5]];portConstraint=eastwest;fontStyle=0" vertex="1" parent="D3oM_xfST8fhxiBOgWNQ-0">
          <mxGeometry y="26" width="177.51764705882354" height="23.93832599118943" as="geometry" />
        </mxCell>
        <mxCell id="D3oM_xfST8fhxiBOgWNQ-2" value="averageMark = 79" style="text;align=left;verticalAlign=top;spacingLeft=4;spacingRight=4;overflow=hidden;rotatable=0;points=[[0,0.5],[1,0.5]];portConstraint=eastwest;rounded=0;shadow=0;html=0;" vertex="1" parent="D3oM_xfST8fhxiBOgWNQ-0">
          <mxGeometry y="49.93832599118943" width="177.51764705882354" height="23.93832599118943" as="geometry" />
        </mxCell>
        <mxCell id="D3oM_xfST8fhxiBOgWNQ-126" value="" style="line;strokeWidth=1;rotatable=0;dashed=0;labelPosition=right;align=left;verticalAlign=middle;spacingTop=0;spacingLeft=6;points=[];portConstraint=eastwest;fontFamily=Helvetica;fontSize=12;fontColor=default;labelBackgroundColor=default;" vertex="1" parent="D3oM_xfST8fhxiBOgWNQ-0">
          <mxGeometry y="73.87665198237886" width="177.51764705882354" height="9.207048458149782" as="geometry" />
        </mxCell>
        <mxCell id="D3oM_xfST8fhxiBOgWNQ-32" value="phoneNumber = str" style="text;align=left;verticalAlign=top;spacingLeft=4;spacingRight=4;overflow=hidden;rotatable=0;points=[[0,0.5],[1,0.5]];portConstraint=eastwest;rounded=0;shadow=0;html=0;" vertex="1" parent="D3oM_xfST8fhxiBOgWNQ-0">
          <mxGeometry y="83.08370044052865" width="177.51764705882354" height="23.93832599118943" as="geometry" />
        </mxCell>
        <mxCell id="D3oM_xfST8fhxiBOgWNQ-33" value="emailAddress = jp89@final.com" style="text;align=left;verticalAlign=top;spacingLeft=4;spacingRight=4;overflow=hidden;rotatable=0;points=[[0,0.5],[1,0.5]];portConstraint=eastwest;rounded=0;shadow=0;html=0;" vertex="1" parent="D3oM_xfST8fhxiBOgWNQ-0">
          <mxGeometry y="107.02202643171807" width="177.51764705882354" height="23.93832599118943" as="geometry" />
        </mxCell>
        <mxCell id="D3oM_xfST8fhxiBOgWNQ-151" style="edgeStyle=none;shape=connector;curved=0;rounded=0;orthogonalLoop=1;jettySize=auto;html=1;strokeColor=default;align=center;verticalAlign=middle;fontFamily=Helvetica;fontSize=12;fontColor=default;labelBackgroundColor=default;startSize=8;endArrow=none;endFill=0;endSize=8;" edge="1" parent="pzczP67oPYf6B7buiO8z-1" source="D3oM_xfST8fhxiBOgWNQ-6" target="D3oM_xfST8fhxiBOgWNQ-152">
          <mxGeometry relative="1" as="geometry">
            <mxPoint x="498.7058823529412" y="729.6123348017621" as="targetPoint" />
          </mxGeometry>
        </mxCell>
        <mxCell id="D3oM_xfST8fhxiBOgWNQ-6" value="Rua Dray : Student" style="swimlane;fontStyle=0;align=center;verticalAlign=top;childLayout=stackLayout;horizontal=1;startSize=26;horizontalStack=0;resizeParent=1;resizeLast=0;collapsible=1;marginBottom=0;rounded=0;shadow=0;strokeWidth=1;fillColor=#ffe6cc;strokeColor=#d79b00;" vertex="1" parent="pzczP67oPYf6B7buiO8z-1">
          <mxGeometry x="516.364705882353" y="665.1629955947137" width="177.51764705882354" height="130.9603524229075" as="geometry">
            <mxRectangle x="1369" y="296" width="160" height="26" as="alternateBounds" />
          </mxGeometry>
        </mxCell>
        <mxCell id="D3oM_xfST8fhxiBOgWNQ-7" value="studentNumber = 507608" style="text;align=left;verticalAlign=top;spacingLeft=4;spacingRight=4;overflow=hidden;rotatable=0;points=[[0,0.5],[1,0.5]];portConstraint=eastwest;fontStyle=0" vertex="1" parent="D3oM_xfST8fhxiBOgWNQ-6">
          <mxGeometry y="26" width="177.51764705882354" height="23.93832599118943" as="geometry" />
        </mxCell>
        <mxCell id="D3oM_xfST8fhxiBOgWNQ-8" value="averageMark = 91" style="text;align=left;verticalAlign=top;spacingLeft=4;spacingRight=4;overflow=hidden;rotatable=0;points=[[0,0.5],[1,0.5]];portConstraint=eastwest;rounded=0;shadow=0;html=0;" vertex="1" parent="D3oM_xfST8fhxiBOgWNQ-6">
          <mxGeometry y="49.93832599118943" width="177.51764705882354" height="23.93832599118943" as="geometry" />
        </mxCell>
        <mxCell id="D3oM_xfST8fhxiBOgWNQ-127" value="" style="line;strokeWidth=1;rotatable=0;dashed=0;labelPosition=right;align=left;verticalAlign=middle;spacingTop=0;spacingLeft=6;points=[];portConstraint=eastwest;fontFamily=Helvetica;fontSize=12;fontColor=default;labelBackgroundColor=default;" vertex="1" parent="D3oM_xfST8fhxiBOgWNQ-6">
          <mxGeometry y="73.87665198237886" width="177.51764705882354" height="9.207048458149782" as="geometry" />
        </mxCell>
        <mxCell id="D3oM_xfST8fhxiBOgWNQ-47" value="phoneNumber = 1068592" style="text;align=left;verticalAlign=top;spacingLeft=4;spacingRight=4;overflow=hidden;rotatable=0;points=[[0,0.5],[1,0.5]];portConstraint=eastwest;rounded=0;shadow=0;html=0;" vertex="1" parent="D3oM_xfST8fhxiBOgWNQ-6">
          <mxGeometry y="83.08370044052865" width="177.51764705882354" height="23.93832599118943" as="geometry" />
        </mxCell>
        <mxCell id="D3oM_xfST8fhxiBOgWNQ-48" value="emailAddress = nah@test.com" style="text;align=left;verticalAlign=top;spacingLeft=4;spacingRight=4;overflow=hidden;rotatable=0;points=[[0,0.5],[1,0.5]];portConstraint=eastwest;rounded=0;shadow=0;html=0;" vertex="1" parent="D3oM_xfST8fhxiBOgWNQ-6">
          <mxGeometry y="107.02202643171807" width="177.51764705882354" height="23.93832599118943" as="geometry" />
        </mxCell>
        <mxCell id="D3oM_xfST8fhxiBOgWNQ-105" style="edgeStyle=none;curved=0;rounded=0;orthogonalLoop=1;jettySize=auto;html=1;fontSize=12;startSize=8;endSize=8;endArrow=none;endFill=0;strokeColor=default;align=center;verticalAlign=middle;fontFamily=Helvetica;fontColor=default;labelBackgroundColor=default;" edge="1" parent="pzczP67oPYf6B7buiO8z-1" source="D3oM_xfST8fhxiBOgWNQ-18" target="D3oM_xfST8fhxiBOgWNQ-0">
          <mxGeometry relative="1" as="geometry" />
        </mxCell>
        <mxCell id="D3oM_xfST8fhxiBOgWNQ-149" style="edgeStyle=none;shape=connector;curved=0;rounded=0;orthogonalLoop=1;jettySize=auto;html=1;strokeColor=default;align=center;verticalAlign=middle;fontFamily=Helvetica;fontSize=12;fontColor=default;labelBackgroundColor=default;startSize=8;endArrow=none;endFill=0;endSize=8;" edge="1" parent="pzczP67oPYf6B7buiO8z-1" source="D3oM_xfST8fhxiBOgWNQ-18" target="D3oM_xfST8fhxiBOgWNQ-158">
          <mxGeometry relative="1" as="geometry">
            <mxPoint x="991.2941176470589" y="488.38766519823787" as="targetPoint" />
          </mxGeometry>
        </mxCell>
        <mxCell id="D3oM_xfST8fhxiBOgWNQ-18" value="Karin Trier : Professor" style="swimlane;fontStyle=0;align=center;verticalAlign=top;childLayout=stackLayout;horizontal=1;startSize=26;horizontalStack=0;resizeParent=1;resizeLast=0;collapsible=1;marginBottom=0;rounded=0;shadow=0;strokeWidth=1;fillColor=#fff2cc;strokeColor=#d6b656;" vertex="1" parent="pzczP67oPYf6B7buiO8z-1">
          <mxGeometry x="796.1176470588235" y="400" width="176.58823529411765" height="178.83700440528636" as="geometry">
            <mxRectangle x="340" y="380" width="170" height="26" as="alternateBounds" />
          </mxGeometry>
        </mxCell>
        <mxCell id="D3oM_xfST8fhxiBOgWNQ-19" value="salary = 79,000" style="text;align=left;verticalAlign=top;spacingLeft=4;spacingRight=4;overflow=hidden;rotatable=0;points=[[0,0.5],[1,0.5]];portConstraint=eastwest;" vertex="1" parent="D3oM_xfST8fhxiBOgWNQ-18">
          <mxGeometry y="26" width="176.58823529411765" height="23.93832599118943" as="geometry" />
        </mxCell>
        <mxCell id="D3oM_xfST8fhxiBOgWNQ-20" value="staffNumber = 148799" style="text;align=left;verticalAlign=top;spacingLeft=4;spacingRight=4;overflow=hidden;rotatable=0;points=[[0,0.5],[1,0.5]];portConstraint=eastwest;" vertex="1" parent="D3oM_xfST8fhxiBOgWNQ-18">
          <mxGeometry y="49.93832599118943" width="176.58823529411765" height="23.93832599118943" as="geometry" />
        </mxCell>
        <mxCell id="D3oM_xfST8fhxiBOgWNQ-21" value="yearsOfService = 10" style="text;align=left;verticalAlign=top;spacingLeft=4;spacingRight=4;overflow=hidden;rotatable=0;points=[[0,0.5],[1,0.5]];portConstraint=eastwest;" vertex="1" parent="D3oM_xfST8fhxiBOgWNQ-18">
          <mxGeometry y="73.87665198237886" width="176.58823529411765" height="23.93832599118943" as="geometry" />
        </mxCell>
        <mxCell id="D3oM_xfST8fhxiBOgWNQ-22" value="numberOfClasses = 5" style="text;align=left;verticalAlign=top;spacingLeft=4;spacingRight=4;overflow=hidden;rotatable=0;points=[[0,0.5],[1,0.5]];portConstraint=eastwest;" vertex="1" parent="D3oM_xfST8fhxiBOgWNQ-18">
          <mxGeometry y="97.81497797356829" width="176.58823529411765" height="23.93832599118943" as="geometry" />
        </mxCell>
        <mxCell id="D3oM_xfST8fhxiBOgWNQ-125" value="" style="line;strokeWidth=1;rotatable=0;dashed=0;labelPosition=right;align=left;verticalAlign=middle;spacingTop=0;spacingLeft=6;points=[];portConstraint=eastwest;fontFamily=Helvetica;fontSize=12;fontColor=default;labelBackgroundColor=default;" vertex="1" parent="D3oM_xfST8fhxiBOgWNQ-18">
          <mxGeometry y="121.75330396475772" width="176.58823529411765" height="9.207048458149782" as="geometry" />
        </mxCell>
        <mxCell id="D3oM_xfST8fhxiBOgWNQ-77" value="phoneNumber = 01824524" style="text;align=left;verticalAlign=top;spacingLeft=4;spacingRight=4;overflow=hidden;rotatable=0;points=[[0,0.5],[1,0.5]];portConstraint=eastwest;rounded=0;shadow=0;html=0;" vertex="1" parent="D3oM_xfST8fhxiBOgWNQ-18">
          <mxGeometry y="130.9603524229075" width="176.58823529411765" height="23.93832599118943" as="geometry" />
        </mxCell>
        <mxCell id="D3oM_xfST8fhxiBOgWNQ-78" value="emailAddress = ktrier@bl.edu" style="text;align=left;verticalAlign=top;spacingLeft=4;spacingRight=4;overflow=hidden;rotatable=0;points=[[0,0.5],[1,0.5]];portConstraint=eastwest;rounded=0;shadow=0;html=0;" vertex="1" parent="D3oM_xfST8fhxiBOgWNQ-18">
          <mxGeometry y="154.89867841409693" width="176.58823529411765" height="23.93832599118943" as="geometry" />
        </mxCell>
        <mxCell id="D3oM_xfST8fhxiBOgWNQ-106" style="edgeStyle=none;curved=0;rounded=0;orthogonalLoop=1;jettySize=auto;html=1;fontSize=12;startSize=8;endSize=8;endArrow=none;endFill=0;strokeColor=default;align=center;verticalAlign=middle;fontFamily=Helvetica;fontColor=default;labelBackgroundColor=default;" edge="1" parent="pzczP67oPYf6B7buiO8z-1" source="D3oM_xfST8fhxiBOgWNQ-24" target="D3oM_xfST8fhxiBOgWNQ-6">
          <mxGeometry relative="1" as="geometry" />
        </mxCell>
        <mxCell id="D3oM_xfST8fhxiBOgWNQ-108" style="edgeStyle=none;curved=0;rounded=0;orthogonalLoop=1;jettySize=auto;html=1;fontSize=12;startSize=8;endSize=8;endArrow=none;endFill=0;strokeColor=default;align=center;verticalAlign=middle;fontFamily=Helvetica;fontColor=default;labelBackgroundColor=default;" edge="1" parent="pzczP67oPYf6B7buiO8z-1" source="D3oM_xfST8fhxiBOgWNQ-24" target="D3oM_xfST8fhxiBOgWNQ-0">
          <mxGeometry relative="1" as="geometry">
            <Array as="points">
              <mxPoint x="768.2352941176471" y="696.4669603524229" />
              <mxPoint x="721.7647058823529" y="512.3259911894273" />
              <mxPoint x="693.8823529411765" y="503.11894273127757" />
            </Array>
          </mxGeometry>
        </mxCell>
        <mxCell id="D3oM_xfST8fhxiBOgWNQ-24" value="Stef Jacobs : Professor" style="swimlane;fontStyle=0;align=center;verticalAlign=top;childLayout=stackLayout;horizontal=1;startSize=26;horizontalStack=0;resizeParent=1;resizeLast=0;collapsible=1;marginBottom=0;rounded=0;shadow=0;strokeWidth=1;fillColor=#fff2cc;strokeColor=#d6b656;" vertex="1" parent="pzczP67oPYf6B7buiO8z-1">
          <mxGeometry x="796.1176470588235" y="641.2246696035243" width="176.58823529411765" height="178.83700440528636" as="geometry">
            <mxRectangle x="340" y="380" width="170" height="26" as="alternateBounds" />
          </mxGeometry>
        </mxCell>
        <mxCell id="D3oM_xfST8fhxiBOgWNQ-25" value="salary = 85,000" style="text;align=left;verticalAlign=top;spacingLeft=4;spacingRight=4;overflow=hidden;rotatable=0;points=[[0,0.5],[1,0.5]];portConstraint=eastwest;" vertex="1" parent="D3oM_xfST8fhxiBOgWNQ-24">
          <mxGeometry y="26" width="176.58823529411765" height="23.93832599118943" as="geometry" />
        </mxCell>
        <mxCell id="D3oM_xfST8fhxiBOgWNQ-26" value="staffNumber = 167294" style="text;align=left;verticalAlign=top;spacingLeft=4;spacingRight=4;overflow=hidden;rotatable=0;points=[[0,0.5],[1,0.5]];portConstraint=eastwest;" vertex="1" parent="D3oM_xfST8fhxiBOgWNQ-24">
          <mxGeometry y="49.93832599118943" width="176.58823529411765" height="23.93832599118943" as="geometry" />
        </mxCell>
        <mxCell id="D3oM_xfST8fhxiBOgWNQ-27" value="yearsOfService = 15" style="text;align=left;verticalAlign=top;spacingLeft=4;spacingRight=4;overflow=hidden;rotatable=0;points=[[0,0.5],[1,0.5]];portConstraint=eastwest;" vertex="1" parent="D3oM_xfST8fhxiBOgWNQ-24">
          <mxGeometry y="73.87665198237886" width="176.58823529411765" height="23.93832599118943" as="geometry" />
        </mxCell>
        <mxCell id="D3oM_xfST8fhxiBOgWNQ-28" value="numberOfClasses = 4" style="text;align=left;verticalAlign=top;spacingLeft=4;spacingRight=4;overflow=hidden;rotatable=0;points=[[0,0.5],[1,0.5]];portConstraint=eastwest;" vertex="1" parent="D3oM_xfST8fhxiBOgWNQ-24">
          <mxGeometry y="97.81497797356829" width="176.58823529411765" height="23.93832599118943" as="geometry" />
        </mxCell>
        <mxCell id="D3oM_xfST8fhxiBOgWNQ-128" value="" style="line;strokeWidth=1;rotatable=0;dashed=0;labelPosition=right;align=left;verticalAlign=middle;spacingTop=0;spacingLeft=6;points=[];portConstraint=eastwest;fontFamily=Helvetica;fontSize=12;fontColor=default;labelBackgroundColor=default;" vertex="1" parent="D3oM_xfST8fhxiBOgWNQ-24">
          <mxGeometry y="121.75330396475772" width="176.58823529411765" height="9.207048458149782" as="geometry" />
        </mxCell>
        <mxCell id="D3oM_xfST8fhxiBOgWNQ-92" value="phoneNumber = 01823452" style="text;align=left;verticalAlign=top;spacingLeft=4;spacingRight=4;overflow=hidden;rotatable=0;points=[[0,0.5],[1,0.5]];portConstraint=eastwest;rounded=0;shadow=0;html=0;" vertex="1" parent="D3oM_xfST8fhxiBOgWNQ-24">
          <mxGeometry y="130.9603524229075" width="176.58823529411765" height="23.93832599118943" as="geometry" />
        </mxCell>
        <mxCell id="D3oM_xfST8fhxiBOgWNQ-93" value="emailAddress =  sjacobs@bl.edu" style="text;align=left;verticalAlign=top;spacingLeft=4;spacingRight=4;overflow=hidden;rotatable=0;points=[[0,0.5],[1,0.5]];portConstraint=eastwest;rounded=0;shadow=0;html=0;" vertex="1" parent="D3oM_xfST8fhxiBOgWNQ-24">
          <mxGeometry y="154.89867841409693" width="176.58823529411765" height="23.93832599118943" as="geometry" />
        </mxCell>
        <mxCell id="D3oM_xfST8fhxiBOgWNQ-136" value="Address" style="swimlane;fontStyle=0;align=center;verticalAlign=top;childLayout=stackLayout;horizontal=1;startSize=26;horizontalStack=0;resizeParent=1;resizeLast=0;collapsible=1;marginBottom=0;rounded=0;shadow=0;strokeWidth=1;fillColor=#dae8fc;strokeColor=#6c8ebf;" vertex="1" parent="pzczP67oPYf6B7buiO8z-1">
          <mxGeometry x="350" y="414.73127753303964" width="148.7058823529412" height="147.31277533039648" as="geometry">
            <mxRectangle x="550" y="140" width="160" height="26" as="alternateBounds" />
          </mxGeometry>
        </mxCell>
        <mxCell id="D3oM_xfST8fhxiBOgWNQ-137" value="street = 45 Rabin Avenue" style="text;align=left;verticalAlign=top;spacingLeft=4;spacingRight=4;overflow=hidden;rotatable=0;points=[[0,0.5],[1,0.5]];portConstraint=eastwest;" vertex="1" parent="D3oM_xfST8fhxiBOgWNQ-136">
          <mxGeometry y="26" width="148.7058823529412" height="23.93832599118943" as="geometry" />
        </mxCell>
        <mxCell id="D3oM_xfST8fhxiBOgWNQ-138" value="city = Clayton" style="text;align=left;verticalAlign=top;spacingLeft=4;spacingRight=4;overflow=hidden;rotatable=0;points=[[0,0.5],[1,0.5]];portConstraint=eastwest;rounded=0;shadow=0;html=0;" vertex="1" parent="D3oM_xfST8fhxiBOgWNQ-136">
          <mxGeometry y="49.93832599118943" width="148.7058823529412" height="23.93832599118943" as="geometry" />
        </mxCell>
        <mxCell id="D3oM_xfST8fhxiBOgWNQ-139" value="state = Victoria" style="text;align=left;verticalAlign=top;spacingLeft=4;spacingRight=4;overflow=hidden;rotatable=0;points=[[0,0.5],[1,0.5]];portConstraint=eastwest;rounded=0;shadow=0;html=0;" vertex="1" parent="D3oM_xfST8fhxiBOgWNQ-136">
          <mxGeometry y="73.87665198237886" width="148.7058823529412" height="23.93832599118943" as="geometry" />
        </mxCell>
        <mxCell id="D3oM_xfST8fhxiBOgWNQ-140" value="postalCode = 3168" style="text;align=left;verticalAlign=top;spacingLeft=4;spacingRight=4;overflow=hidden;rotatable=0;points=[[0,0.5],[1,0.5]];portConstraint=eastwest;rounded=0;shadow=0;html=0;" vertex="1" parent="D3oM_xfST8fhxiBOgWNQ-136">
          <mxGeometry y="97.81497797356829" width="148.7058823529412" height="23.93832599118943" as="geometry" />
        </mxCell>
        <mxCell id="D3oM_xfST8fhxiBOgWNQ-141" value="country = Australia" style="text;align=left;verticalAlign=top;spacingLeft=4;spacingRight=4;overflow=hidden;rotatable=0;points=[[0,0.5],[1,0.5]];portConstraint=eastwest;rounded=0;shadow=0;html=0;" vertex="1" parent="D3oM_xfST8fhxiBOgWNQ-136">
          <mxGeometry y="121.75330396475772" width="148.7058823529412" height="23.93832599118943" as="geometry" />
        </mxCell>
        <mxCell id="D3oM_xfST8fhxiBOgWNQ-148" style="edgeStyle=none;shape=connector;curved=0;rounded=0;orthogonalLoop=1;jettySize=auto;html=1;strokeColor=default;align=center;verticalAlign=middle;fontFamily=Helvetica;fontSize=12;fontColor=default;labelBackgroundColor=default;startSize=8;endArrow=none;endFill=0;endSize=8;" edge="1" parent="pzczP67oPYf6B7buiO8z-1" source="D3oM_xfST8fhxiBOgWNQ-27" target="D3oM_xfST8fhxiBOgWNQ-164">
          <mxGeometry relative="1" as="geometry">
            <mxPoint x="991.2941176470589" y="727.7237094770135" as="targetPoint" />
          </mxGeometry>
        </mxCell>
        <mxCell id="D3oM_xfST8fhxiBOgWNQ-152" value="Address" style="swimlane;fontStyle=0;align=center;verticalAlign=top;childLayout=stackLayout;horizontal=1;startSize=26;horizontalStack=0;resizeParent=1;resizeLast=0;collapsible=1;marginBottom=0;rounded=0;shadow=0;strokeWidth=1;fillColor=#dae8fc;strokeColor=#6c8ebf;" vertex="1" parent="pzczP67oPYf6B7buiO8z-1">
          <mxGeometry x="350" y="655.9559471365639" width="148.7058823529412" height="147.31277533039648" as="geometry">
            <mxRectangle x="550" y="140" width="160" height="26" as="alternateBounds" />
          </mxGeometry>
        </mxCell>
        <mxCell id="D3oM_xfST8fhxiBOgWNQ-153" value="street = 45 Rabin Avenue" style="text;align=left;verticalAlign=top;spacingLeft=4;spacingRight=4;overflow=hidden;rotatable=0;points=[[0,0.5],[1,0.5]];portConstraint=eastwest;" vertex="1" parent="D3oM_xfST8fhxiBOgWNQ-152">
          <mxGeometry y="26" width="148.7058823529412" height="23.93832599118943" as="geometry" />
        </mxCell>
        <mxCell id="D3oM_xfST8fhxiBOgWNQ-154" value="city = Clayton" style="text;align=left;verticalAlign=top;spacingLeft=4;spacingRight=4;overflow=hidden;rotatable=0;points=[[0,0.5],[1,0.5]];portConstraint=eastwest;rounded=0;shadow=0;html=0;" vertex="1" parent="D3oM_xfST8fhxiBOgWNQ-152">
          <mxGeometry y="49.93832599118943" width="148.7058823529412" height="23.93832599118943" as="geometry" />
        </mxCell>
        <mxCell id="D3oM_xfST8fhxiBOgWNQ-155" value="state = Victoria" style="text;align=left;verticalAlign=top;spacingLeft=4;spacingRight=4;overflow=hidden;rotatable=0;points=[[0,0.5],[1,0.5]];portConstraint=eastwest;rounded=0;shadow=0;html=0;" vertex="1" parent="D3oM_xfST8fhxiBOgWNQ-152">
          <mxGeometry y="73.87665198237886" width="148.7058823529412" height="23.93832599118943" as="geometry" />
        </mxCell>
        <mxCell id="D3oM_xfST8fhxiBOgWNQ-156" value="postalCode = 3168" style="text;align=left;verticalAlign=top;spacingLeft=4;spacingRight=4;overflow=hidden;rotatable=0;points=[[0,0.5],[1,0.5]];portConstraint=eastwest;rounded=0;shadow=0;html=0;" vertex="1" parent="D3oM_xfST8fhxiBOgWNQ-152">
          <mxGeometry y="97.81497797356829" width="148.7058823529412" height="23.93832599118943" as="geometry" />
        </mxCell>
        <mxCell id="D3oM_xfST8fhxiBOgWNQ-157" value="country = Australia" style="text;align=left;verticalAlign=top;spacingLeft=4;spacingRight=4;overflow=hidden;rotatable=0;points=[[0,0.5],[1,0.5]];portConstraint=eastwest;rounded=0;shadow=0;html=0;" vertex="1" parent="D3oM_xfST8fhxiBOgWNQ-152">
          <mxGeometry y="121.75330396475772" width="148.7058823529412" height="23.93832599118943" as="geometry" />
        </mxCell>
        <mxCell id="D3oM_xfST8fhxiBOgWNQ-158" value="Address" style="swimlane;fontStyle=0;align=center;verticalAlign=top;childLayout=stackLayout;horizontal=1;startSize=26;horizontalStack=0;resizeParent=1;resizeLast=0;collapsible=1;marginBottom=0;rounded=0;shadow=0;strokeWidth=1;fillColor=#dae8fc;strokeColor=#6c8ebf;" vertex="1" parent="pzczP67oPYf6B7buiO8z-1">
          <mxGeometry x="991.2941176470589" y="411.0484581497797" width="148.7058823529412" height="147.31277533039648" as="geometry">
            <mxRectangle x="550" y="140" width="160" height="26" as="alternateBounds" />
          </mxGeometry>
        </mxCell>
        <mxCell id="D3oM_xfST8fhxiBOgWNQ-159" value="street = 86 Roy Street" style="text;align=left;verticalAlign=top;spacingLeft=4;spacingRight=4;overflow=hidden;rotatable=0;points=[[0,0.5],[1,0.5]];portConstraint=eastwest;" vertex="1" parent="D3oM_xfST8fhxiBOgWNQ-158">
          <mxGeometry y="26" width="148.7058823529412" height="23.93832599118943" as="geometry" />
        </mxCell>
        <mxCell id="D3oM_xfST8fhxiBOgWNQ-160" value="city = Eltham" style="text;align=left;verticalAlign=top;spacingLeft=4;spacingRight=4;overflow=hidden;rotatable=0;points=[[0,0.5],[1,0.5]];portConstraint=eastwest;rounded=0;shadow=0;html=0;" vertex="1" parent="D3oM_xfST8fhxiBOgWNQ-158">
          <mxGeometry y="49.93832599118943" width="148.7058823529412" height="23.93832599118943" as="geometry" />
        </mxCell>
        <mxCell id="D3oM_xfST8fhxiBOgWNQ-161" value="state = Victoria" style="text;align=left;verticalAlign=top;spacingLeft=4;spacingRight=4;overflow=hidden;rotatable=0;points=[[0,0.5],[1,0.5]];portConstraint=eastwest;rounded=0;shadow=0;html=0;" vertex="1" parent="D3oM_xfST8fhxiBOgWNQ-158">
          <mxGeometry y="73.87665198237886" width="148.7058823529412" height="23.93832599118943" as="geometry" />
        </mxCell>
        <mxCell id="D3oM_xfST8fhxiBOgWNQ-162" value="postalCode = 3095" style="text;align=left;verticalAlign=top;spacingLeft=4;spacingRight=4;overflow=hidden;rotatable=0;points=[[0,0.5],[1,0.5]];portConstraint=eastwest;rounded=0;shadow=0;html=0;" vertex="1" parent="D3oM_xfST8fhxiBOgWNQ-158">
          <mxGeometry y="97.81497797356829" width="148.7058823529412" height="23.93832599118943" as="geometry" />
        </mxCell>
        <mxCell id="D3oM_xfST8fhxiBOgWNQ-163" value="country = Australia" style="text;align=left;verticalAlign=top;spacingLeft=4;spacingRight=4;overflow=hidden;rotatable=0;points=[[0,0.5],[1,0.5]];portConstraint=eastwest;rounded=0;shadow=0;html=0;" vertex="1" parent="D3oM_xfST8fhxiBOgWNQ-158">
          <mxGeometry y="121.75330396475772" width="148.7058823529412" height="23.93832599118943" as="geometry" />
        </mxCell>
        <mxCell id="D3oM_xfST8fhxiBOgWNQ-164" value="Address" style="swimlane;fontStyle=0;align=center;verticalAlign=top;childLayout=stackLayout;horizontal=1;startSize=26;horizontalStack=0;resizeParent=1;resizeLast=0;collapsible=1;marginBottom=0;rounded=0;shadow=0;strokeWidth=1;fillColor=#dae8fc;strokeColor=#6c8ebf;" vertex="1" parent="pzczP67oPYf6B7buiO8z-1">
          <mxGeometry x="991.2941176470589" y="655.9559471365639" width="148.7058823529412" height="147.31277533039648" as="geometry">
            <mxRectangle x="550" y="140" width="160" height="26" as="alternateBounds" />
          </mxGeometry>
        </mxCell>
        <mxCell id="D3oM_xfST8fhxiBOgWNQ-165" value="street = 2B Jan Drive" style="text;align=left;verticalAlign=top;spacingLeft=4;spacingRight=4;overflow=hidden;rotatable=0;points=[[0,0.5],[1,0.5]];portConstraint=eastwest;" vertex="1" parent="D3oM_xfST8fhxiBOgWNQ-164">
          <mxGeometry y="26" width="148.7058823529412" height="23.93832599118943" as="geometry" />
        </mxCell>
        <mxCell id="D3oM_xfST8fhxiBOgWNQ-166" value="city = Glen Waverley" style="text;align=left;verticalAlign=top;spacingLeft=4;spacingRight=4;overflow=hidden;rotatable=0;points=[[0,0.5],[1,0.5]];portConstraint=eastwest;rounded=0;shadow=0;html=0;" vertex="1" parent="D3oM_xfST8fhxiBOgWNQ-164">
          <mxGeometry y="49.93832599118943" width="148.7058823529412" height="23.93832599118943" as="geometry" />
        </mxCell>
        <mxCell id="D3oM_xfST8fhxiBOgWNQ-167" value="state = Victoria" style="text;align=left;verticalAlign=top;spacingLeft=4;spacingRight=4;overflow=hidden;rotatable=0;points=[[0,0.5],[1,0.5]];portConstraint=eastwest;rounded=0;shadow=0;html=0;" vertex="1" parent="D3oM_xfST8fhxiBOgWNQ-164">
          <mxGeometry y="73.87665198237886" width="148.7058823529412" height="23.93832599118943" as="geometry" />
        </mxCell>
        <mxCell id="D3oM_xfST8fhxiBOgWNQ-168" value="postalCode = 3150" style="text;align=left;verticalAlign=top;spacingLeft=4;spacingRight=4;overflow=hidden;rotatable=0;points=[[0,0.5],[1,0.5]];portConstraint=eastwest;rounded=0;shadow=0;html=0;" vertex="1" parent="D3oM_xfST8fhxiBOgWNQ-164">
          <mxGeometry y="97.81497797356829" width="148.7058823529412" height="23.93832599118943" as="geometry" />
        </mxCell>
        <mxCell id="D3oM_xfST8fhxiBOgWNQ-169" value="country = Australia" style="text;align=left;verticalAlign=top;spacingLeft=4;spacingRight=4;overflow=hidden;rotatable=0;points=[[0,0.5],[1,0.5]];portConstraint=eastwest;rounded=0;shadow=0;html=0;" vertex="1" parent="D3oM_xfST8fhxiBOgWNQ-164">
          <mxGeometry y="121.75330396475772" width="148.7058823529412" height="23.93832599118943" as="geometry" />
        </mxCell>
      </root>
    </mxGraphModel>
  </diagram>
</mxfile>
